<?xml version="1.0" standalone="no"?><!DOCTYPE svg PUBLIC "-//W3C//DTD SVG 1.1//EN" "http://www.w3.org/Graphics/SVG/1.1/DTD/svg11.dtd"><svg t="1570509864837" class="icon" viewBox="0 0 1024 1024" version="1.1" xmlns="http://www.w3.org/2000/svg" p-id="1126" xmlns:xlink="http://www.w3.org/1999/xlink" width="200" height="200"><defs><style type="text/css"></style></defs><path d="M1024 539.875556V398.222222h-122.88a417.564444 417.564444 0 0 0-101.262222-179.2L861.866667 113.777778l-187.733334-113.777778-61.44 109.795556a392.533333 392.533333 0 0 0-201.386666 0L351.004444 0l-113.777777 66.56-6.257778 3.413333-68.266667 43.804445 61.44 107.52a414.151111 414.151111 0 0 0-62.008889 83.057778 420.977778 420.977778 0 0 0-39.253333 96.711111V398.222222H0v227.555556h122.88a417.564444 417.564444 0 0 0 101.262222 179.2L162.133333 910.222222l188.302223 113.777778 61.44-109.226667a392.533333 392.533333 0 0 0 202.524444 0l21.048889 36.977778 39.253333 72.248889 69.973334-41.528889 46.648888-27.875555 71.68-44.373334-61.44-109.226666a414.72 414.72 0 0 0 62.008889-83.057778 421.546667 421.546667 0 0 0 39.253334-96.711111H1024V539.875556zM404.48 704.284444a227.555556 227.555556 0 0 1-79.075556-302.648888 212.195556 212.195556 0 0 1 294.684445-81.351112A227.555556 227.555556 0 0 1 698.595556 625.777778a212.195556 212.195556 0 0 1-294.115556 78.506666z" p-id="1127"></path></svg>